<?xml version="1.0"?>
<svg xmlns="http://www.w3.org/2000/svg" height="512px" viewBox="0 0 512 512" width="512px"><path d="m449.980469 38.320312h-60v39.167969h-29.996094v-39.167969h-30v39.167969h-29.996094v-39.167969h-30.003906v39.167969h-29.996094v-39.167969h-30v39.167969h-29.996093v-39.167969h-30v39.167969h-29.996094v-39.167969h-30.003906v39.167969h-29.996094v-39.167969h-59.996094v103.675782h449.980469zm0 0" fill="#989898"/><path d="m251.5625 378.527344h-191.566406v-147.988282h329.984375v20.121094c1.921875-.074218 3.847656-.125 5.789062-.125 19.152344 0 37.449219 3.738282 54.210938 10.503906v-89.046874h-449.980469v257.769531h254.5625c-2.625-10.910157-4.027344-22.289063-4.027344-33.992188 0-5.835937.355469-11.585937 1.027344-17.242187zm0 0" fill="#989898"/><path d="m209.542969 319.53125h30.148437v29h-30.148437zm0 0" fill="#989898"/><path d="m149.394531 319.53125h30.152344v29h-30.152344zm0 0" fill="#989898"/><path d="m149.394531 260.535156h30.152344v29h-30.152344zm0 0" fill="#989898"/><path d="m89.992188 319.53125h29.40625v29h-29.40625zm0 0" fill="#989898"/><path d="m209.542969 260.535156h30.148437v29h-30.148437zm0 0" fill="#989898"/><path d="m89.992188 260.535156h29.40625v29h-29.40625zm0 0" fill="#989898"/><path d="m299.839844 286.824219v-26.289063h-30.152344v29h27.164062c.984376-.917968 1.976563-1.820312 2.988282-2.710937zm0 0" fill="#989898"/><path d="m59.996094 0h30v38.320312h-30zm0 0" fill="#989898"/><path d="m119.996094 0h29.996094v38.320312h-29.996094zm0 0" fill="#989898"/><path d="m179.992188 0h29.996093v38.320312h-29.996093zm0 0" fill="#989898"/><path d="m239.988281 0h30v38.320312h-30zm0 0" fill="#989898"/><path d="m299.988281 0h29.996094v38.320312h-29.996094zm0 0" fill="#989898"/><path d="m359.984375 0h29.996094v38.320312h-29.996094zm0 0" fill="#989898"/><path d="m395.769531 279.535156c-64.09375 0-116.234375 52.140625-116.234375 116.230469 0 64.09375 52.140625 116.234375 116.234375 116.234375 64.089844 0 116.230469-52.140625 116.230469-116.234375 0-64.089844-52.140625-116.230469-116.230469-116.230469zm44.660157 131.230469h-29.664063v29.664063h-29.996094v-29.664063h-29.664062v-29.996094h29.664062v-29.664062h29.996094v29.664062h29.664063zm0 0" fill="#989898"/></svg>
