<?xml version="1.0"?>
<svg xmlns="http://www.w3.org/2000/svg" height="512px" viewBox="-64 0 512 512" width="512px"><path d="m127.464844 128.53125c9.449218 0 17.132812-7.683594 17.132812-17.132812 0-9.445313-7.683594-17.132813-17.132812-17.132813-9.445313 0-17.132813 7.6875-17.132813 17.132813 0 9.449218 7.6875 17.132812 17.132813 17.132812zm0 0" fill="#989898"/><path d="m257.066406 81.398438v-81.398438h-209.933594c-25.800781 0-47.132812 20.847656-47.132812 47.132812v417.734376c0 25.804687 20.855469 47.132812 47.132812 47.132812h289.199219c25.800781 0 47.136719-20.847656 47.136719-47.132812v-338.46875h-81.402344c-24.8125 0-45-20.183594-45-45zm-129.601562 334.203124h-48.199219c-8.285156 0-15-6.71875-15-15 0-8.285156 6.714844-15 15-15h48.199219c8.285156 0 15 6.714844 15 15 0 8.28125-6.714844 15-15 15zm0-64.269531h-48.199219c-8.285156 0-15-6.714843-15-15 0-8.28125 6.714844-15 15-15h48.199219c8.285156 0 15 6.71875 15 15 0 8.285157-6.714844 15-15 15zm0-64.265625h-48.199219c-8.285156 0-15-6.714844-15-15s6.714844-15 15-15h48.199219c8.285156 0 15 6.714844 15 15s-6.714844 15-15 15zm-48.199219-64.265625c-8.285156 0-15-6.714843-15-15v-16.082031c0-21.035156 10.339844-39.6875 26.195313-51.179688-6.332032-8.027343-10.128907-18.144531-10.128907-29.140624 0-25.988282 21.144531-47.132813 47.132813-47.132813 25.988281 0 47.132812 21.144531 47.132812 47.132813 0 10.996093-3.792968 21.117187-10.128906 29.144531 15.855469 11.488281 26.195312 30.140625 26.195312 51.171875v16.085937c0 8.285157-6.714843 15-15 15zm224.933594 192.800781h-112.464844c-8.285156 0-15-6.71875-15-15 0-8.285156 6.714844-15 15-15h112.464844c8.285156 0 15 6.714844 15 15 0 8.28125-6.714844 15-15 15zm0-64.269531h-112.464844c-8.285156 0-15-6.714843-15-15 0-8.28125 6.714844-15 15-15h112.464844c8.285156 0 15 6.71875 15 15 0 8.285157-6.714844 15-15 15zm15-79.265625c0 8.285156-6.714844 15-15 15h-112.464844c-8.285156 0-15-6.714844-15-15s6.714844-15 15-15h112.464844c8.285156 0 15 6.714844 15 15zm0 0" fill="#989898"/><path d="m127.484375 158.53125c-18.332031 0-33.21875 14.886719-33.21875 33.1875v1.082031h66.402344v-1.082031c-.003907-18.300781-14.886719-33.1875-33.183594-33.1875zm0 0" fill="#989898"/><path d="m379.074219 84.726562-80.335938-80.332031c-2.8125-2.816406-6.625-4.394531-10.605469-4.394531h-1.066406v81.398438c0 8.285156 6.714844 15 15 15h81.398438v-1.066407c0-3.976562-1.578125-7.792969-4.390625-10.605469zm0 0" fill="#989898"/></svg>
